<?xml version="1.0" standalone="no"?>
<!DOCTYPE svg PUBLIC "-//W3C//DTD SVG 20010904//EN"
 "http://www.w3.org/TR/2001/REC-SVG-20010904/DTD/svg10.dtd">
<svg version="1.0" xmlns="http://www.w3.org/2000/svg"
 width="926.000000pt" height="980.000000pt" viewBox="0 0 926.000000 980.000000"
 preserveAspectRatio="xMidYMid meet">
<metadata>
Created by potrace 1.15, written by Peter Selinger 2001-2017
</metadata>
<g transform="translate(0.000000,980.000000) scale(0.100000,-0.100000)"
fill="#000000" stroke="none">
<path d="M4340 9794 c-394 -34 -811 -157 -1083 -320 -228 -137 -450 -355 -586
-577 -233 -381 -340 -885 -311 -1465 15 -295 36 -453 112 -833 l40 -206 -41
-69 c-23 -38 -56 -111 -73 -164 -29 -88 -32 -105 -32 -235 -1 -212 38 -374
134 -570 63 -128 133 -221 213 -284 71 -56 84 -80 118 -211 32 -125 112 -324
198 -495 83 -163 142 -257 220 -350 l51 -59 0 -86 c0 -47 -5 -205 -10 -352
-14 -383 -29 -439 -149 -550 -175 -163 -391 -277 -996 -527 -881 -365 -1132
-501 -1451 -788 -315 -284 -500 -588 -599 -983 -32 -129 -52 -252 -75 -470
-11 -102 -20 -188 -20 -192 0 -5 2084 -8 4630 -8 2547 0 4630 3 4630 8 0 4 -9
88 -20 186 -87 761 -291 1160 -797 1563 -285 227 -539 360 -1268 661 -507 210
-743 323 -909 435 -92 62 -199 170 -235 236 -40 76 -47 148 -56 556 l-7 310
64 77 c122 146 263 428 367 733 33 95 69 191 80 213 11 22 58 78 104 124 94
95 162 198 212 320 70 176 101 355 92 543 -7 137 -22 199 -77 326 -48 109 -49
137 -11 283 57 214 107 518 131 801 13 157 13 530 -1 653 -44 403 -193 745
-429 983 -150 150 -308 247 -534 325 -124 43 -178 74 -300 172 -171 138 -380
222 -661 267 -96 16 -553 29 -665 19z m570 -468 c256 -41 354 -85 512 -233 62
-58 128 -112 147 -122 20 -10 86 -30 146 -45 308 -76 484 -208 615 -458 80
-153 121 -294 140 -483 17 -161 14 -526 -4 -675 -31 -252 -99 -571 -186 -882
l-51 -181 95 -96 c55 -56 98 -109 102 -125 12 -48 -3 -246 -25 -331 -12 -44
-37 -113 -56 -152 -43 -88 -80 -113 -199 -137 -44 -9 -80 -17 -81 -19 -1 -1
-7 -36 -14 -77 -19 -119 -79 -383 -107 -467 -37 -111 -145 -332 -208 -427 -30
-44 -91 -117 -135 -161 l-81 -80 0 -365 c1 -730 17 -834 168 -1035 136 -183
332 -329 662 -494 194 -96 305 -145 835 -365 495 -207 771 -357 1021 -559 220
-178 373 -394 475 -669 26 -71 59 -199 59 -229 0 -5 -1567 -9 -4106 -9 l-4107
0 6 62 c11 119 123 388 214 517 26 36 99 119 163 184 299 308 528 438 1432
811 782 322 1029 473 1250 766 81 107 116 189 133 314 26 187 36 523 25 820
l-11 268 -85 80 c-207 197 -329 470 -439 991 -22 104 -46 130 -143 156 -48 12
-84 28 -102 46 -78 75 -140 270 -142 445 -1 62 4 117 11 134 6 16 50 66 96
110 47 45 85 87 85 94 0 8 -20 100 -44 205 -69 297 -105 501 -138 792 -20 171
-16 655 5 780 68 388 187 639 406 855 117 116 206 179 350 251 347 172 918
256 1311 195z"/>
</g>
</svg>
